<svg width="8408" height="2515" viewBox="0 0 8408 2515" fill="none" xmlns="http://www.w3.org/2000/svg">
<path d="M1257.5 880.249L1634.75 1257.5L1257.5 1634.75L880.254 1257.5L1257.5 880.249Z" stroke="url(#paint0_linear_2511_20)" stroke-width="100.6" stroke-linejoin="round"/>
<path d="M1257.5 1307.8C1285.28 1307.8 1307.8 1285.28 1307.8 1257.5C1307.8 1229.72 1285.28 1207.2 1257.5 1207.2C1229.72 1207.2 1207.2 1229.72 1207.2 1257.5C1207.2 1285.28 1229.72 1307.8 1257.5 1307.8Z" fill="url(#paint1_linear_2511_20)"/>
<path d="M1257.5 503.004L2012 1257.5L1257.5 2012L503 1257.5L1257.5 503.004Z" stroke="url(#paint2_linear_2511_20)" stroke-width="100.6" stroke-linejoin="round"/>
<path d="M2620.54 651.219H2937.17L3271.59 1467.11H3285.82L3620.24 651.219H3936.87V1865.57H3687.84V1075.17H3677.76L3363.5 1859.64H3193.92L2879.66 1072.21H2869.58V1865.57H2620.54V651.219ZM4555.16 1883.35C4463.06 1883.35 4383.41 1863.79 4316.21 1824.65C4249.4 1785.12 4197.82 1730.18 4161.45 1659.81C4125.08 1589.06 4106.9 1507.03 4106.9 1413.74C4106.9 1319.66 4125.08 1237.44 4161.45 1167.08C4197.82 1096.32 4249.4 1041.38 4316.21 1002.24C4383.41 962.712 4463.06 942.947 4555.16 942.947C4647.27 942.947 4726.72 962.712 4793.53 1002.24C4860.73 1041.38 4912.51 1096.32 4948.88 1167.08C4985.25 1237.44 5003.43 1319.66 5003.43 1413.74C5003.43 1507.03 4985.25 1589.06 4948.88 1659.81C4912.51 1730.18 4860.73 1785.12 4793.53 1824.65C4726.72 1863.79 4647.27 1883.35 4555.16 1883.35ZM4556.35 1687.68C4598.25 1687.68 4633.23 1675.82 4661.3 1652.11C4689.37 1627.99 4710.52 1595.18 4724.75 1553.68C4739.37 1512.17 4746.68 1464.93 4746.68 1411.96C4746.68 1358.99 4739.37 1311.76 4724.75 1270.25C4710.52 1228.75 4689.37 1195.94 4661.3 1171.82C4633.23 1147.71 4598.25 1135.65 4556.35 1135.65C4514.05 1135.65 4478.48 1147.71 4449.62 1171.82C4421.16 1195.94 4399.62 1228.75 4384.99 1270.25C4370.76 1311.76 4363.64 1358.99 4363.64 1411.96C4363.64 1464.93 4370.76 1512.17 4384.99 1553.68C4399.62 1595.18 4421.16 1627.99 4449.62 1652.11C4478.48 1675.82 4514.05 1687.68 4556.35 1687.68ZM5925.45 1214.51L5694.21 1228.75C5690.25 1208.98 5681.75 1191.19 5668.71 1175.38C5655.67 1159.17 5638.47 1146.33 5617.12 1136.84C5596.17 1126.96 5571.07 1122.02 5541.82 1122.02C5502.69 1122.02 5469.68 1130.32 5442.8 1146.92C5415.92 1163.13 5402.48 1184.87 5402.48 1212.14C5402.48 1233.88 5411.18 1252.27 5428.57 1267.29C5445.96 1282.31 5475.81 1294.36 5518.1 1303.46L5682.94 1336.66C5771.49 1354.84 5837.5 1384.1 5880.98 1424.42C5924.47 1464.74 5946.21 1517.71 5946.21 1583.32C5946.21 1643.01 5928.62 1695.39 5893.44 1740.45C5858.65 1785.52 5810.82 1820.7 5749.94 1846C5689.46 1870.9 5619.69 1883.35 5540.63 1883.35C5420.07 1883.35 5324.01 1858.25 5252.46 1808.05C5181.31 1757.45 5139.61 1688.67 5127.35 1601.71L5375.8 1588.66C5383.31 1625.42 5401.49 1653.49 5430.35 1672.86C5459.2 1691.83 5496.16 1701.32 5541.23 1701.32C5585.5 1701.32 5621.08 1692.82 5647.96 1675.82C5675.23 1658.43 5689.07 1636.1 5689.46 1608.82C5689.07 1585.89 5679.38 1567.12 5660.41 1552.49C5641.43 1537.47 5612.18 1526.01 5572.65 1518.1L5414.93 1486.68C5325.99 1468.89 5259.78 1438.05 5216.3 1394.18C5173.21 1350.3 5151.66 1294.36 5151.66 1226.37C5151.66 1167.87 5167.48 1117.47 5199.1 1075.17C5231.12 1032.88 5275.98 1000.26 5333.7 977.337C5391.81 954.41 5459.8 942.947 5537.67 942.947C5652.7 942.947 5743.22 967.257 5809.24 1015.88C5875.65 1064.5 5914.39 1130.71 5925.45 1214.51ZM7940.27 1883.35C7846.98 1883.35 7766.74 1863.59 7699.54 1824.06C7632.73 1784.13 7581.35 1728.79 7545.37 1658.04C7509.8 1587.28 7492.01 1505.85 7492.01 1413.74C7492.01 1320.45 7509.99 1238.63 7545.97 1168.26C7582.33 1097.51 7633.92 1042.36 7700.72 1002.83C7767.53 962.909 7846.98 942.947 7939.09 942.947C8018.54 942.947 8088.11 957.375 8147.8 986.232C8207.49 1015.09 8254.73 1055.61 8289.52 1107.78C8324.3 1159.96 8343.47 1221.23 8347.03 1291.6H8108.67C8101.95 1246.14 8084.16 1209.57 8055.3 1181.9C8026.84 1153.84 7989.49 1139.8 7943.24 1139.8C7904.1 1139.8 7869.91 1150.48 7840.66 1171.82C7811.8 1192.77 7789.27 1223.41 7773.06 1263.73C7756.86 1304.05 7748.75 1352.87 7748.75 1410.19C7748.75 1468.29 7756.66 1517.71 7772.47 1558.42C7788.68 1599.14 7811.41 1630.17 7840.66 1651.51C7869.91 1672.86 7904.1 1683.53 7943.24 1683.53C7972.09 1683.53 7997.99 1677.6 8020.91 1665.74C8044.24 1653.88 8063.41 1636.69 8078.43 1614.16C8093.85 1591.23 8103.93 1563.76 8108.67 1531.74H8347.03C8343.08 1601.31 8324.1 1662.58 8290.11 1715.55C8256.51 1768.13 8210.06 1809.24 8150.77 1838.88C8091.47 1868.53 8021.31 1883.35 7940.27 1883.35Z" fill="white"/>
<path d="M6364.97 1882.76C6306.86 1882.76 6255.08 1872.68 6209.62 1852.52C6164.16 1831.97 6128.19 1801.73 6101.71 1761.8C6075.62 1721.48 6062.57 1671.28 6062.57 1611.19C6062.57 1560.6 6071.86 1518.1 6090.44 1483.71C6109.02 1449.32 6134.32 1421.65 6166.34 1400.7C6198.36 1379.75 6234.72 1363.94 6275.44 1353.26C6316.55 1342.59 6359.64 1335.08 6404.7 1330.73C6457.67 1325.2 6500.36 1320.06 6532.78 1315.31C6565.19 1310.18 6588.71 1302.67 6603.34 1292.78C6617.96 1282.9 6625.27 1268.27 6625.27 1248.91V1245.35C6625.27 1207.79 6613.42 1178.74 6589.7 1158.18C6566.38 1137.63 6533.17 1127.35 6490.08 1127.35C6444.62 1127.35 6408.46 1137.43 6381.58 1157.59C6354.7 1177.36 6336.91 1202.26 6328.21 1232.3L6094.59 1213.33C6106.45 1157.99 6129.77 1110.16 6164.56 1069.84C6199.34 1029.12 6244.21 997.893 6299.16 976.152C6354.5 954.015 6418.54 942.947 6491.27 942.947C6541.87 942.947 6590.29 948.876 6636.54 960.735C6683.19 972.594 6724.49 990.975 6760.47 1015.88C6796.83 1040.78 6825.49 1072.8 6846.44 1111.94C6867.39 1150.67 6877.87 1197.12 6877.87 1251.28V1865.57H6638.32V1739.27H6631.2C6616.58 1767.73 6597.01 1792.83 6572.5 1814.57C6547.99 1835.92 6518.55 1852.72 6484.15 1864.97C6449.76 1876.83 6410.04 1882.76 6364.97 1882.76ZM6437.31 1708.44C6474.47 1708.44 6507.28 1701.12 6535.74 1686.5C6564.2 1671.48 6586.54 1651.32 6602.74 1626.02C6618.95 1600.72 6627.05 1572.06 6627.05 1540.04V1443.39C6619.15 1448.53 6608.28 1453.27 6594.44 1457.62C6581 1461.57 6565.78 1465.33 6548.79 1468.89C6531.79 1472.05 6514.79 1475.01 6497.79 1477.78C6480.79 1480.15 6465.38 1482.33 6451.54 1484.3C6421.9 1488.65 6396 1495.57 6373.87 1505.06C6351.73 1514.54 6334.54 1527.39 6322.28 1543.6C6310.03 1559.41 6303.9 1579.17 6303.9 1602.89C6303.9 1637.28 6316.35 1663.57 6341.26 1681.75C6366.55 1699.54 6398.57 1708.44 6437.31 1708.44ZM7073.84 1865.57V954.806H7326.43V1865.57H7073.84ZM7200.73 837.403C7163.17 837.403 7130.96 824.951 7104.08 800.048C7077.59 774.749 7064.35 744.509 7064.35 709.327C7064.35 674.541 7077.59 644.697 7104.08 619.793C7130.96 594.494 7163.17 581.845 7200.73 581.845C7238.28 581.845 7270.3 594.494 7296.78 619.793C7323.66 644.697 7337.1 674.541 7337.1 709.327C7337.1 744.509 7323.66 774.749 7296.78 800.048C7270.3 824.951 7238.28 837.403 7200.73 837.403Z" fill="white"/>
<path d="M6364.97 1882.76C6306.86 1882.76 6255.08 1872.68 6209.62 1852.52C6164.16 1831.97 6128.19 1801.73 6101.71 1761.8C6075.62 1721.48 6062.57 1671.28 6062.57 1611.19C6062.57 1560.6 6071.86 1518.1 6090.44 1483.71C6109.02 1449.32 6134.32 1421.65 6166.34 1400.7C6198.36 1379.75 6234.72 1363.94 6275.44 1353.26C6316.55 1342.59 6359.64 1335.08 6404.7 1330.73C6457.67 1325.2 6500.36 1320.06 6532.78 1315.31C6565.19 1310.18 6588.71 1302.67 6603.34 1292.78C6617.96 1282.9 6625.27 1268.27 6625.27 1248.91V1245.35C6625.27 1207.79 6613.42 1178.74 6589.7 1158.18C6566.38 1137.63 6533.17 1127.35 6490.08 1127.35C6444.62 1127.35 6408.46 1137.43 6381.58 1157.59C6354.7 1177.36 6336.91 1202.26 6328.21 1232.3L6094.59 1213.33C6106.45 1157.99 6129.77 1110.16 6164.56 1069.84C6199.34 1029.12 6244.21 997.893 6299.16 976.152C6354.5 954.015 6418.54 942.947 6491.27 942.947C6541.87 942.947 6590.29 948.876 6636.54 960.735C6683.19 972.594 6724.49 990.975 6760.47 1015.88C6796.83 1040.78 6825.49 1072.8 6846.44 1111.94C6867.39 1150.67 6877.87 1197.12 6877.87 1251.28V1865.57H6638.32V1739.27H6631.2C6616.58 1767.73 6597.01 1792.83 6572.5 1814.57C6547.99 1835.92 6518.55 1852.72 6484.15 1864.97C6449.76 1876.83 6410.04 1882.76 6364.97 1882.76ZM6437.31 1708.44C6474.47 1708.44 6507.28 1701.12 6535.74 1686.5C6564.2 1671.48 6586.54 1651.32 6602.74 1626.02C6618.95 1600.72 6627.05 1572.06 6627.05 1540.04V1443.39C6619.15 1448.53 6608.28 1453.27 6594.44 1457.62C6581 1461.57 6565.78 1465.33 6548.79 1468.89C6531.79 1472.05 6514.79 1475.01 6497.79 1477.78C6480.79 1480.15 6465.38 1482.33 6451.54 1484.3C6421.9 1488.65 6396 1495.57 6373.87 1505.06C6351.73 1514.54 6334.54 1527.39 6322.28 1543.6C6310.03 1559.41 6303.9 1579.17 6303.9 1602.89C6303.9 1637.28 6316.35 1663.57 6341.26 1681.75C6366.55 1699.54 6398.57 1708.44 6437.31 1708.44ZM7073.84 1865.57V954.806H7326.43V1865.57H7073.84ZM7200.73 837.403C7163.17 837.403 7130.96 824.951 7104.08 800.048C7077.59 774.749 7064.35 744.509 7064.35 709.327C7064.35 674.541 7077.59 644.697 7104.08 619.793C7130.96 594.494 7163.17 581.845 7200.73 581.845C7238.28 581.845 7270.3 594.494 7296.78 619.793C7323.66 644.697 7337.1 674.541 7337.1 709.327C7337.1 744.509 7323.66 774.749 7296.78 800.048C7270.3 824.951 7238.28 837.403 7200.73 837.403Z" fill="url(#paint3_linear_2511_20)"/>
<defs>
<linearGradient id="paint0_linear_2511_20" x1="880.254" y1="880.249" x2="76330.2" y2="76330.2" gradientUnits="userSpaceOnUse">
<stop stop-color="#A855F7"/>
<stop offset="0.01" stop-color="#EC4899"/>
</linearGradient>
<linearGradient id="paint1_linear_2511_20" x1="1207.2" y1="1207.2" x2="11267.2" y2="11267.2" gradientUnits="userSpaceOnUse">
<stop stop-color="#A855F7"/>
<stop offset="0.01" stop-color="#EC4899"/>
</linearGradient>
<linearGradient id="paint2_linear_2511_20" x1="503" y1="503.004" x2="151403" y2="151403" gradientUnits="userSpaceOnUse">
<stop stop-color="#A855F7"/>
<stop offset="0.01" stop-color="#EC4899"/>
</linearGradient>
<linearGradient id="paint3_linear_2511_20" x1="2515" y1="1258.07" x2="8408" y2="1258.07" gradientUnits="userSpaceOnUse">
<stop offset="0.605" stop-color="#A855F7"/>
<stop offset="0.87" stop-color="#EC4899"/>
</linearGradient>
</defs>
</svg>
