<svg width="8531" height="2515" viewBox="0 0 8531 2515" fill="none" xmlns="http://www.w3.org/2000/svg">
<path d="M1257.5 880.248L1634.75 1257.5L1257.5 1634.75L880.254 1257.5L1257.5 880.248Z" stroke="url(#paint0_linear_2512_13)" stroke-width="100.6" stroke-linejoin="round"/>
<path d="M1257.5 1307.8C1285.28 1307.8 1307.8 1285.28 1307.8 1257.5C1307.8 1229.72 1285.28 1207.2 1257.5 1207.2C1229.72 1207.2 1207.2 1229.72 1207.2 1257.5C1207.2 1285.28 1229.72 1307.8 1257.5 1307.8Z" fill="url(#paint1_linear_2512_13)"/>
<path d="M1257.5 503.004L2012 1257.5L1257.5 2012L503 1257.5L1257.5 503.004Z" stroke="url(#paint2_linear_2512_13)" stroke-width="100.6" stroke-linejoin="round"/>
<g filter="url(#filter0_d_2512_13)">
<mask id="path-4-outside-1_2512_13" maskUnits="userSpaceOnUse" x="2619" y="649.564" width="5852" height="1235" fill="black">
<rect fill="white" x="2619" y="649.564" width="5852" height="1235"/>
<path d="M2620.54 651.218H2937.17L3271.59 1467.11H3285.82L3620.24 651.218H3936.87V1865.56H3687.84V1075.17H3677.76L3363.5 1859.64H3193.92L2879.66 1072.21H2869.58V1865.56H2620.54V651.218ZM4555.16 1883.35C4463.06 1883.35 4383.41 1863.79 4316.21 1824.65C4249.4 1785.12 4197.82 1730.18 4161.45 1659.81C4125.08 1589.06 4106.9 1507.03 4106.9 1413.74C4106.9 1319.66 4125.08 1237.44 4161.45 1167.08C4197.82 1096.32 4249.4 1041.37 4316.21 1002.24C4383.41 962.711 4463.06 942.946 4555.16 942.946C4647.27 942.946 4726.72 962.711 4793.53 1002.24C4860.73 1041.37 4912.51 1096.32 4948.88 1167.08C4985.25 1237.44 5003.43 1319.66 5003.43 1413.74C5003.43 1507.03 4985.25 1589.06 4948.88 1659.81C4912.51 1730.18 4860.73 1785.12 4793.53 1824.65C4726.72 1863.79 4647.27 1883.35 4555.16 1883.35ZM4556.35 1687.68C4598.25 1687.68 4633.23 1675.82 4661.3 1652.11C4689.37 1627.99 4710.52 1595.18 4724.75 1553.68C4739.37 1512.17 4746.68 1464.93 4746.68 1411.96C4746.68 1358.99 4739.37 1311.76 4724.75 1270.25C4710.52 1228.74 4689.37 1195.93 4661.3 1171.82C4633.23 1147.71 4598.25 1135.65 4556.35 1135.65C4514.05 1135.65 4478.48 1147.71 4449.62 1171.82C4421.16 1195.93 4399.62 1228.74 4384.99 1270.25C4370.76 1311.76 4363.64 1358.99 4363.64 1411.96C4363.64 1464.93 4370.76 1512.17 4384.99 1553.68C4399.62 1595.18 4421.16 1627.99 4449.62 1652.11C4478.48 1675.82 4514.05 1687.68 4556.35 1687.68ZM5925.45 1214.51L5694.21 1228.74C5690.25 1208.98 5681.75 1191.19 5668.71 1175.38C5655.67 1159.17 5638.47 1146.33 5617.12 1136.84C5596.17 1126.96 5571.07 1122.01 5541.82 1122.01C5502.69 1122.01 5469.68 1130.32 5442.8 1146.92C5415.92 1163.13 5402.48 1184.87 5402.48 1212.14C5402.48 1233.88 5411.18 1252.26 5428.57 1267.29C5445.96 1282.31 5475.81 1294.36 5518.1 1303.45L5682.94 1336.66C5771.49 1354.84 5837.5 1384.1 5880.98 1424.42C5924.47 1464.74 5946.21 1517.7 5946.21 1583.32C5946.21 1643.01 5928.62 1695.39 5893.44 1740.45C5858.65 1785.52 5810.82 1820.7 5749.94 1846C5689.46 1870.9 5619.69 1883.35 5540.63 1883.35C5420.07 1883.35 5324.01 1858.25 5252.46 1808.05C5181.31 1757.45 5139.61 1688.67 5127.35 1601.71L5375.8 1588.66C5383.31 1625.42 5401.49 1653.49 5430.35 1672.86C5459.2 1691.83 5496.16 1701.32 5541.23 1701.32C5585.5 1701.32 5621.08 1692.82 5647.96 1675.82C5675.23 1658.43 5689.07 1636.1 5689.46 1608.82C5689.07 1585.89 5679.38 1567.12 5660.41 1552.49C5641.43 1537.47 5612.18 1526.01 5572.65 1518.1L5414.93 1486.67C5325.99 1468.89 5259.78 1438.05 5216.3 1394.18C5173.21 1350.3 5151.66 1294.36 5151.66 1226.37C5151.66 1167.87 5167.48 1117.47 5199.1 1075.17C5231.12 1032.88 5275.98 1000.26 5333.7 977.336C5391.81 954.409 5459.8 942.946 5537.67 942.946C5652.7 942.946 5743.22 967.256 5809.24 1015.88C5875.65 1064.5 5914.39 1130.71 5925.45 1214.51ZM8062.57 1883.35C7969.28 1883.35 7889.03 1863.59 7821.83 1824.06C7755.03 1784.13 7703.64 1728.79 7667.67 1658.03C7632.09 1587.28 7614.3 1505.85 7614.3 1413.74C7614.3 1320.45 7632.29 1238.63 7668.26 1168.26C7704.63 1097.51 7756.21 1042.36 7823.02 1002.83C7889.82 962.908 7969.28 942.946 8061.38 942.946C8140.84 942.946 8210.41 957.374 8270.1 986.231C8329.79 1015.09 8377.02 1055.6 8411.81 1107.78C8446.6 1159.96 8465.77 1221.23 8469.33 1291.6H8230.96C8224.24 1246.14 8206.45 1209.57 8177.6 1181.9C8149.14 1153.84 8111.78 1139.8 8065.53 1139.8C8026.4 1139.8 7992.2 1150.48 7962.95 1171.82C7934.1 1192.77 7911.56 1223.41 7895.36 1263.73C7879.15 1304.05 7871.05 1352.87 7871.05 1410.18C7871.05 1468.29 7878.95 1517.7 7894.76 1558.42C7910.97 1599.14 7933.7 1630.17 7962.95 1651.51C7992.2 1672.86 8026.4 1683.53 8065.53 1683.53C8094.39 1683.53 8120.28 1677.6 8143.21 1665.74C8166.53 1653.88 8185.7 1636.69 8200.72 1614.16C8216.14 1591.23 8226.22 1563.76 8230.96 1531.74H8469.33C8465.37 1601.31 8446.4 1662.58 8412.4 1715.55C8378.8 1768.12 8332.36 1809.23 8273.06 1838.88C8213.77 1868.53 8143.6 1883.35 8062.57 1883.35Z"/>
</mask>
<path d="M2620.54 651.218H2937.17L3271.59 1467.11H3285.82L3620.24 651.218H3936.87V1865.56H3687.84V1075.17H3677.76L3363.5 1859.64H3193.92L2879.66 1072.21H2869.58V1865.56H2620.54V651.218ZM4555.16 1883.35C4463.06 1883.35 4383.41 1863.79 4316.21 1824.65C4249.4 1785.12 4197.82 1730.18 4161.45 1659.81C4125.08 1589.06 4106.9 1507.03 4106.9 1413.74C4106.9 1319.66 4125.08 1237.44 4161.45 1167.08C4197.82 1096.32 4249.4 1041.37 4316.21 1002.24C4383.41 962.711 4463.06 942.946 4555.16 942.946C4647.27 942.946 4726.72 962.711 4793.53 1002.24C4860.73 1041.37 4912.51 1096.32 4948.88 1167.08C4985.25 1237.44 5003.43 1319.66 5003.43 1413.74C5003.43 1507.03 4985.25 1589.06 4948.88 1659.81C4912.51 1730.18 4860.73 1785.12 4793.53 1824.65C4726.72 1863.79 4647.27 1883.35 4555.16 1883.35ZM4556.35 1687.68C4598.25 1687.68 4633.23 1675.82 4661.3 1652.11C4689.37 1627.99 4710.52 1595.18 4724.75 1553.68C4739.37 1512.17 4746.68 1464.93 4746.68 1411.96C4746.68 1358.99 4739.37 1311.76 4724.75 1270.25C4710.52 1228.74 4689.37 1195.93 4661.3 1171.82C4633.23 1147.71 4598.25 1135.65 4556.35 1135.65C4514.05 1135.65 4478.48 1147.71 4449.62 1171.82C4421.16 1195.93 4399.62 1228.74 4384.99 1270.25C4370.76 1311.76 4363.64 1358.99 4363.64 1411.96C4363.64 1464.93 4370.76 1512.17 4384.99 1553.68C4399.62 1595.18 4421.16 1627.99 4449.62 1652.11C4478.48 1675.82 4514.05 1687.68 4556.35 1687.68ZM5925.45 1214.51L5694.21 1228.74C5690.25 1208.98 5681.75 1191.19 5668.71 1175.38C5655.67 1159.17 5638.47 1146.33 5617.12 1136.84C5596.17 1126.96 5571.07 1122.01 5541.82 1122.01C5502.69 1122.01 5469.68 1130.32 5442.8 1146.92C5415.92 1163.13 5402.48 1184.87 5402.48 1212.14C5402.48 1233.88 5411.18 1252.26 5428.57 1267.29C5445.96 1282.31 5475.81 1294.36 5518.1 1303.45L5682.94 1336.66C5771.49 1354.84 5837.5 1384.1 5880.98 1424.42C5924.47 1464.74 5946.21 1517.7 5946.21 1583.32C5946.21 1643.01 5928.62 1695.39 5893.44 1740.45C5858.65 1785.52 5810.82 1820.7 5749.94 1846C5689.46 1870.9 5619.69 1883.35 5540.63 1883.35C5420.07 1883.35 5324.01 1858.25 5252.46 1808.05C5181.31 1757.45 5139.61 1688.67 5127.35 1601.71L5375.8 1588.66C5383.31 1625.42 5401.49 1653.49 5430.35 1672.86C5459.2 1691.83 5496.16 1701.32 5541.23 1701.32C5585.5 1701.32 5621.08 1692.82 5647.96 1675.82C5675.23 1658.43 5689.07 1636.1 5689.46 1608.82C5689.07 1585.89 5679.38 1567.12 5660.41 1552.49C5641.43 1537.47 5612.18 1526.01 5572.65 1518.1L5414.93 1486.67C5325.99 1468.89 5259.78 1438.05 5216.3 1394.18C5173.21 1350.3 5151.66 1294.36 5151.66 1226.37C5151.66 1167.87 5167.48 1117.47 5199.1 1075.17C5231.12 1032.88 5275.98 1000.26 5333.7 977.336C5391.81 954.409 5459.8 942.946 5537.67 942.946C5652.7 942.946 5743.22 967.256 5809.24 1015.88C5875.65 1064.5 5914.39 1130.71 5925.45 1214.51ZM8062.57 1883.35C7969.28 1883.35 7889.03 1863.59 7821.83 1824.06C7755.03 1784.13 7703.64 1728.79 7667.67 1658.03C7632.09 1587.28 7614.3 1505.85 7614.3 1413.74C7614.3 1320.45 7632.29 1238.63 7668.26 1168.26C7704.63 1097.51 7756.21 1042.36 7823.02 1002.83C7889.82 962.908 7969.28 942.946 8061.38 942.946C8140.84 942.946 8210.41 957.374 8270.1 986.231C8329.79 1015.09 8377.02 1055.6 8411.81 1107.78C8446.6 1159.96 8465.77 1221.23 8469.33 1291.6H8230.96C8224.24 1246.14 8206.45 1209.57 8177.6 1181.9C8149.14 1153.84 8111.78 1139.8 8065.53 1139.8C8026.4 1139.8 7992.2 1150.48 7962.95 1171.82C7934.1 1192.77 7911.56 1223.41 7895.36 1263.73C7879.15 1304.05 7871.05 1352.87 7871.05 1410.18C7871.05 1468.29 7878.95 1517.7 7894.76 1558.42C7910.97 1599.14 7933.7 1630.17 7962.95 1651.51C7992.2 1672.86 8026.4 1683.53 8065.53 1683.53C8094.39 1683.53 8120.28 1677.6 8143.21 1665.74C8166.53 1653.88 8185.7 1636.69 8200.72 1614.16C8216.14 1591.23 8226.22 1563.76 8230.96 1531.74H8469.33C8465.37 1601.31 8446.4 1662.58 8412.4 1715.55C8378.8 1768.12 8332.36 1809.23 8273.06 1838.88C8213.77 1868.53 8143.6 1883.35 8062.57 1883.35Z" fill="white"/>
<path d="M2620.54 651.218H2937.17L3271.59 1467.11H3285.82L3620.24 651.218H3936.87V1865.56H3687.84V1075.17H3677.76L3363.5 1859.64H3193.92L2879.66 1072.21H2869.58V1865.56H2620.54V651.218ZM4555.16 1883.35C4463.06 1883.35 4383.41 1863.79 4316.21 1824.65C4249.4 1785.12 4197.82 1730.18 4161.45 1659.81C4125.08 1589.06 4106.9 1507.03 4106.9 1413.74C4106.9 1319.66 4125.08 1237.44 4161.45 1167.08C4197.82 1096.32 4249.4 1041.37 4316.21 1002.24C4383.41 962.711 4463.06 942.946 4555.16 942.946C4647.27 942.946 4726.72 962.711 4793.53 1002.24C4860.73 1041.37 4912.51 1096.32 4948.88 1167.08C4985.25 1237.44 5003.43 1319.66 5003.43 1413.74C5003.43 1507.03 4985.25 1589.06 4948.88 1659.81C4912.51 1730.18 4860.73 1785.12 4793.53 1824.65C4726.72 1863.79 4647.27 1883.35 4555.16 1883.35ZM4556.35 1687.68C4598.25 1687.68 4633.23 1675.82 4661.3 1652.11C4689.37 1627.99 4710.52 1595.18 4724.75 1553.68C4739.37 1512.17 4746.68 1464.93 4746.68 1411.96C4746.68 1358.99 4739.37 1311.76 4724.75 1270.25C4710.52 1228.74 4689.37 1195.93 4661.3 1171.82C4633.23 1147.71 4598.25 1135.65 4556.35 1135.65C4514.05 1135.65 4478.48 1147.71 4449.62 1171.82C4421.16 1195.93 4399.62 1228.74 4384.99 1270.25C4370.76 1311.76 4363.64 1358.99 4363.64 1411.96C4363.64 1464.93 4370.76 1512.17 4384.99 1553.68C4399.62 1595.18 4421.16 1627.99 4449.62 1652.11C4478.48 1675.82 4514.05 1687.68 4556.35 1687.68ZM5925.45 1214.51L5694.21 1228.74C5690.25 1208.98 5681.75 1191.19 5668.71 1175.38C5655.67 1159.17 5638.47 1146.33 5617.12 1136.84C5596.17 1126.96 5571.07 1122.01 5541.82 1122.01C5502.69 1122.01 5469.68 1130.32 5442.8 1146.92C5415.92 1163.13 5402.48 1184.87 5402.48 1212.14C5402.48 1233.88 5411.18 1252.26 5428.57 1267.29C5445.96 1282.31 5475.81 1294.36 5518.1 1303.45L5682.94 1336.66C5771.49 1354.84 5837.5 1384.1 5880.98 1424.42C5924.47 1464.74 5946.21 1517.7 5946.21 1583.32C5946.21 1643.01 5928.62 1695.39 5893.44 1740.45C5858.65 1785.52 5810.82 1820.7 5749.94 1846C5689.46 1870.9 5619.69 1883.35 5540.63 1883.35C5420.07 1883.35 5324.01 1858.25 5252.46 1808.05C5181.31 1757.45 5139.61 1688.67 5127.35 1601.71L5375.8 1588.66C5383.31 1625.42 5401.49 1653.49 5430.35 1672.86C5459.2 1691.83 5496.16 1701.32 5541.23 1701.32C5585.5 1701.32 5621.08 1692.82 5647.96 1675.82C5675.23 1658.43 5689.07 1636.1 5689.46 1608.82C5689.07 1585.89 5679.38 1567.12 5660.41 1552.49C5641.43 1537.47 5612.18 1526.01 5572.65 1518.1L5414.93 1486.67C5325.99 1468.89 5259.78 1438.05 5216.3 1394.18C5173.21 1350.3 5151.66 1294.36 5151.66 1226.37C5151.66 1167.87 5167.48 1117.47 5199.1 1075.17C5231.12 1032.88 5275.98 1000.26 5333.7 977.336C5391.81 954.409 5459.8 942.946 5537.67 942.946C5652.7 942.946 5743.22 967.256 5809.24 1015.88C5875.65 1064.5 5914.39 1130.71 5925.45 1214.51ZM8062.57 1883.35C7969.28 1883.35 7889.03 1863.59 7821.83 1824.06C7755.03 1784.13 7703.64 1728.79 7667.67 1658.03C7632.09 1587.28 7614.3 1505.85 7614.3 1413.74C7614.3 1320.45 7632.29 1238.63 7668.26 1168.26C7704.63 1097.51 7756.21 1042.36 7823.02 1002.83C7889.82 962.908 7969.28 942.946 8061.38 942.946C8140.84 942.946 8210.41 957.374 8270.1 986.231C8329.79 1015.09 8377.02 1055.6 8411.81 1107.78C8446.6 1159.96 8465.77 1221.23 8469.33 1291.6H8230.96C8224.24 1246.14 8206.45 1209.57 8177.6 1181.9C8149.14 1153.84 8111.78 1139.8 8065.53 1139.8C8026.4 1139.8 7992.2 1150.48 7962.95 1171.82C7934.1 1192.77 7911.56 1223.41 7895.36 1263.73C7879.15 1304.05 7871.05 1352.87 7871.05 1410.18C7871.05 1468.29 7878.95 1517.7 7894.76 1558.42C7910.97 1599.14 7933.7 1630.17 7962.95 1651.51C7992.2 1672.86 8026.4 1683.53 8065.53 1683.53C8094.39 1683.53 8120.28 1677.6 8143.21 1665.74C8166.53 1653.88 8185.7 1636.69 8200.72 1614.16C8216.14 1591.23 8226.22 1563.76 8230.96 1531.74H8469.33C8465.37 1601.31 8446.4 1662.58 8412.4 1715.55C8378.8 1768.12 8332.36 1809.23 8273.06 1838.88C8213.77 1868.53 8143.6 1883.35 8062.57 1883.35Z" fill="url(#paint3_linear_2512_13)"/>
<path d="M2620.54 651.218V650.218H2619.54V651.218H2620.54ZM2937.17 651.218L2938.1 650.839L2937.84 650.218H2937.17V651.218ZM3271.59 1467.11L3270.67 1467.49L3270.92 1468.11H3271.59V1467.11ZM3285.82 1467.11V1468.11H3286.49L3286.75 1467.49L3285.82 1467.11ZM3620.24 651.218V650.218H3619.57L3619.32 650.839L3620.24 651.218ZM3936.87 651.218H3937.87V650.218H3936.87V651.218ZM3936.87 1865.56V1866.56H3937.87V1865.56H3936.87ZM3687.84 1865.56H3686.84V1866.56H3687.84V1865.56ZM3687.84 1075.17H3688.84V1074.17H3687.84V1075.17ZM3677.76 1075.17V1074.17H3677.08L3676.83 1074.8L3677.76 1075.17ZM3363.5 1859.64V1860.64H3364.17L3364.43 1860.01L3363.5 1859.64ZM3193.92 1859.64L3192.99 1860.01L3193.24 1860.64H3193.92V1859.64ZM2879.66 1072.21L2880.59 1071.84L2880.33 1071.21H2879.66V1072.21ZM2869.58 1072.21V1071.21H2868.58V1072.21H2869.58ZM2869.58 1865.56V1866.56H2870.58V1865.56H2869.58ZM2620.54 1865.56H2619.54V1866.56H2620.54V1865.56ZM2620.54 651.218V652.218H2937.17V651.218V650.218H2620.54V651.218ZM2937.17 651.218L2936.25 651.597L3270.67 1467.49L3271.59 1467.11L3272.52 1466.73L2938.1 650.839L2937.17 651.218ZM3271.59 1467.11V1468.11H3285.82V1467.11V1466.11H3271.59V1467.11ZM3285.82 1467.11L3286.75 1467.49L3621.17 651.597L3620.24 651.218L3619.32 650.839L3284.9 1466.73L3285.82 1467.11ZM3620.24 651.218V652.218H3936.87V651.218V650.218H3620.24V651.218ZM3936.87 651.218H3935.87V1865.56H3936.87H3937.87V651.218H3936.87ZM3936.87 1865.56V1864.56H3687.84V1865.56V1866.56H3936.87V1865.56ZM3687.84 1865.56H3688.84V1075.17H3687.84H3686.84V1865.56H3687.84ZM3687.84 1075.17V1074.17H3677.76V1075.17V1076.17H3687.84V1075.17ZM3677.76 1075.17L3676.83 1074.8L3362.57 1859.26L3363.5 1859.64L3364.43 1860.01L3678.69 1075.54L3677.76 1075.17ZM3363.5 1859.64V1858.64H3193.92V1859.64V1860.64H3363.5V1859.64ZM3193.92 1859.64L3194.85 1859.26L2880.59 1071.84L2879.66 1072.21L2878.73 1072.58L3192.99 1860.01L3193.92 1859.64ZM2879.66 1072.21V1071.21H2869.58V1072.21V1073.21H2879.66V1072.21ZM2869.58 1072.21H2868.58V1865.56H2869.58H2870.58V1072.21H2869.58ZM2869.58 1865.56V1864.56H2620.54V1865.56V1866.56H2869.58V1865.56ZM2620.54 1865.56H2621.54V651.218H2620.54H2619.54V1865.56H2620.54ZM4316.21 1824.65L4315.7 1825.51L4315.71 1825.52L4316.21 1824.65ZM4161.45 1659.81L4160.56 1660.27L4160.56 1660.27L4161.45 1659.81ZM4161.45 1167.08L4162.34 1167.54L4162.34 1167.54L4161.45 1167.08ZM4316.21 1002.24L4316.71 1003.1L4316.72 1003.1L4316.21 1002.24ZM4793.53 1002.24L4793.02 1003.1L4793.02 1003.1L4793.53 1002.24ZM4948.88 1167.08L4947.99 1167.54L4947.99 1167.54L4948.88 1167.08ZM4948.88 1659.81L4949.77 1660.27L4949.77 1660.27L4948.88 1659.81ZM4793.53 1824.65L4794.03 1825.51L4794.03 1825.51L4793.53 1824.65ZM4661.3 1652.11L4661.95 1652.87L4661.95 1652.86L4661.3 1652.11ZM4724.75 1553.68L4723.8 1553.34L4723.8 1553.35L4724.75 1553.68ZM4724.75 1270.25L4723.8 1270.57L4723.8 1270.58L4724.75 1270.25ZM4449.62 1171.82L4448.98 1171.05L4448.97 1171.06L4449.62 1171.82ZM4384.99 1270.25L4384.05 1269.92L4384.04 1269.93L4384.99 1270.25ZM4384.99 1553.68L4384.04 1554L4384.05 1554.01L4384.99 1553.68ZM4449.62 1652.11L4448.97 1652.87L4448.98 1652.87L4448.99 1652.88L4449.62 1652.11ZM4555.16 1883.35V1882.35C4463.2 1882.35 4383.73 1862.82 4316.71 1823.79L4316.21 1824.65L4315.71 1825.52C4383.08 1864.75 4462.92 1884.35 4555.16 1884.35V1883.35ZM4316.21 1824.65L4316.72 1823.79C4250.08 1784.36 4198.62 1729.55 4162.34 1659.35L4161.45 1659.81L4160.56 1660.27C4197.01 1730.8 4248.73 1785.88 4315.7 1825.51L4316.21 1824.65ZM4161.45 1659.81L4162.34 1659.36C4126.06 1588.76 4107.9 1506.9 4107.9 1413.74H4106.9H4105.9C4105.9 1507.16 4124.11 1589.35 4160.56 1660.27L4161.45 1659.81ZM4106.9 1413.74H4107.9C4107.9 1319.79 4126.06 1237.73 4162.34 1167.54L4161.45 1167.08L4160.56 1166.62C4124.11 1237.15 4105.9 1319.53 4105.9 1413.74H4106.9ZM4161.45 1167.08L4162.34 1167.54C4198.62 1096.94 4250.08 1042.14 4316.71 1003.1L4316.21 1002.24L4315.7 1001.38C4248.73 1040.61 4197.01 1095.7 4160.56 1166.62L4161.45 1167.08ZM4316.21 1002.24L4316.72 1003.1C4383.74 963.678 4463.21 943.946 4555.16 943.946V942.946V941.946C4462.91 941.946 4383.08 961.743 4315.7 1001.38L4316.21 1002.24ZM4555.16 942.946V943.946C4647.12 943.946 4726.39 963.678 4793.02 1003.1L4793.53 1002.24L4794.04 1001.38C4727.05 961.743 4647.41 941.946 4555.16 941.946V942.946ZM4793.53 1002.24L4793.02 1003.1C4860.06 1042.14 4911.71 1096.94 4947.99 1167.54L4948.88 1167.08L4949.77 1166.62C4913.32 1095.7 4861.4 1040.61 4794.03 1001.38L4793.53 1002.24ZM4948.88 1167.08L4947.99 1167.54C4984.27 1237.73 5002.43 1319.79 5002.43 1413.74H5003.43H5004.43C5004.43 1319.53 4986.22 1237.15 4949.77 1166.62L4948.88 1167.08ZM5003.43 1413.74H5002.43C5002.43 1506.9 4984.27 1588.76 4947.99 1659.36L4948.88 1659.81L4949.77 1660.27C4986.22 1589.35 5004.43 1507.16 5004.43 1413.74H5003.43ZM4948.88 1659.81L4947.99 1659.35C4911.71 1729.55 4860.05 1784.36 4793.02 1823.79L4793.53 1824.65L4794.03 1825.51C4861.4 1785.89 4913.31 1730.8 4949.77 1660.27L4948.88 1659.81ZM4793.53 1824.65L4793.02 1823.79C4726.4 1862.82 4647.12 1882.35 4555.16 1882.35V1883.35V1884.35C4647.41 1884.35 4727.05 1864.75 4794.03 1825.51L4793.53 1824.65ZM4556.35 1687.68V1688.68C4598.45 1688.68 4633.67 1676.76 4661.95 1652.87L4661.3 1652.11L4660.66 1651.34C4632.8 1674.89 4598.05 1686.68 4556.35 1686.68V1687.68ZM4661.3 1652.11L4661.95 1652.86C4690.18 1628.61 4711.41 1595.64 4725.69 1554L4724.75 1553.68L4723.8 1553.35C4709.62 1594.72 4688.56 1627.37 4660.65 1651.35L4661.3 1652.11ZM4724.75 1553.68L4725.69 1554.01C4740.36 1512.38 4747.68 1465.02 4747.68 1411.96H4746.68H4745.68C4745.68 1464.84 4738.38 1511.96 4723.8 1553.34L4724.75 1553.68ZM4746.68 1411.96H4747.68C4747.68 1358.9 4740.36 1311.55 4725.69 1269.92L4724.75 1270.25L4723.8 1270.58C4738.38 1311.96 4745.68 1359.08 4745.68 1411.96H4746.68ZM4724.75 1270.25L4725.69 1269.93C4711.41 1228.28 4690.18 1195.31 4661.95 1171.06L4661.3 1171.82L4660.65 1172.58C4688.56 1196.56 4709.62 1229.21 4723.8 1270.57L4724.75 1270.25ZM4661.3 1171.82L4661.95 1171.06C4633.68 1146.77 4598.46 1134.65 4556.35 1134.65V1135.65V1136.65C4598.05 1136.65 4632.79 1148.64 4660.65 1172.58L4661.3 1171.82ZM4556.35 1135.65V1134.65C4513.85 1134.65 4478.04 1146.77 4448.98 1171.05L4449.62 1171.82L4450.26 1172.59C4478.92 1148.65 4514.26 1136.65 4556.35 1136.65V1135.65ZM4449.62 1171.82L4448.97 1171.06C4420.35 1195.31 4398.72 1228.27 4384.05 1269.92L4384.99 1270.25L4385.93 1270.58C4400.51 1229.21 4421.96 1196.56 4450.27 1172.58L4449.62 1171.82ZM4384.99 1270.25L4384.04 1269.93C4369.77 1311.56 4362.64 1358.91 4362.64 1411.96H4363.64H4364.64C4364.64 1359.08 4371.75 1311.96 4385.94 1270.57L4384.99 1270.25ZM4363.64 1411.96H4362.64C4362.64 1465.02 4369.77 1512.37 4384.04 1554L4384.99 1553.68L4385.94 1553.35C4371.75 1511.97 4364.64 1464.84 4364.64 1411.96H4363.64ZM4384.99 1553.68L4384.05 1554.01C4398.72 1595.65 4420.35 1628.62 4448.97 1652.87L4449.62 1652.11L4450.27 1651.34C4421.96 1627.36 4400.51 1594.71 4385.93 1553.34L4384.99 1553.68ZM4449.62 1652.11L4448.99 1652.88C4478.04 1676.76 4513.85 1688.68 4556.35 1688.68V1687.68V1686.68C4514.25 1686.68 4478.91 1674.88 4450.26 1651.33L4449.62 1652.11ZM5925.45 1214.51L5925.52 1215.51L5926.59 1215.45L5926.45 1214.38L5925.45 1214.51ZM5694.21 1228.74L5693.23 1228.94L5693.4 1229.8L5694.27 1229.74L5694.21 1228.74ZM5668.71 1175.38L5667.93 1176.01L5667.94 1176.02L5668.71 1175.38ZM5617.12 1136.84L5616.7 1137.74L5616.71 1137.75L5616.72 1137.75L5617.12 1136.84ZM5442.8 1146.92L5443.32 1147.77L5443.32 1147.77L5442.8 1146.92ZM5428.57 1267.29L5427.91 1268.04L5427.91 1268.04L5428.57 1267.29ZM5518.1 1303.45L5517.89 1304.43L5517.91 1304.44L5518.1 1303.45ZM5682.94 1336.66L5683.14 1335.68L5683.14 1335.68L5682.94 1336.66ZM5880.98 1424.42L5880.3 1425.15L5880.3 1425.15L5880.98 1424.42ZM5893.44 1740.45L5892.65 1739.84L5892.64 1739.84L5893.44 1740.45ZM5749.94 1846L5750.32 1846.92L5750.33 1846.92L5749.94 1846ZM5252.46 1808.05L5251.89 1808.86L5251.89 1808.87L5252.46 1808.05ZM5127.35 1601.71L5127.3 1600.71L5126.21 1600.76L5126.36 1601.84L5127.35 1601.71ZM5375.8 1588.66L5376.78 1588.46L5376.6 1587.62L5375.74 1587.66L5375.8 1588.66ZM5430.35 1672.86L5429.79 1673.69L5429.8 1673.69L5430.35 1672.86ZM5647.96 1675.82L5648.49 1676.67L5648.49 1676.67L5647.96 1675.82ZM5689.46 1608.82L5690.46 1608.83L5690.46 1608.82L5690.46 1608.8L5689.46 1608.82ZM5660.41 1552.49L5659.79 1553.27L5659.8 1553.28L5660.41 1552.49ZM5572.65 1518.1L5572.85 1517.12L5572.85 1517.12L5572.65 1518.1ZM5414.93 1486.67L5414.73 1487.65L5414.74 1487.65L5414.93 1486.67ZM5216.3 1394.18L5215.58 1394.88L5215.58 1394.88L5216.3 1394.18ZM5199.1 1075.17L5198.3 1074.57L5198.3 1074.57L5199.1 1075.17ZM5333.7 977.336L5333.33 976.406L5333.33 976.407L5333.7 977.336ZM5809.24 1015.88L5808.64 1016.68L5808.65 1016.68L5809.24 1015.88ZM5925.45 1214.51L5925.39 1213.52L5694.15 1227.75L5694.21 1228.74L5694.27 1229.74L5925.52 1215.51L5925.45 1214.51ZM5694.21 1228.74L5695.19 1228.55C5691.2 1208.62 5682.63 1190.68 5669.48 1174.74L5668.71 1175.38L5667.94 1176.02C5680.88 1191.7 5689.31 1209.34 5693.23 1228.94L5694.21 1228.74ZM5668.71 1175.38L5669.49 1174.75C5656.33 1158.41 5639 1145.47 5617.53 1135.92L5617.12 1136.84L5616.72 1137.75C5637.94 1147.18 5655 1159.94 5667.93 1176.01L5668.71 1175.38ZM5617.12 1136.84L5617.55 1135.93C5596.44 1125.97 5571.18 1121.01 5541.82 1121.01V1122.01V1123.01C5570.96 1123.01 5595.91 1127.94 5616.7 1137.74L5617.12 1136.84ZM5541.82 1122.01V1121.01C5502.54 1121.01 5469.35 1129.35 5442.27 1146.07L5442.8 1146.92L5443.32 1147.77C5470.01 1131.28 5502.83 1123.01 5541.82 1123.01V1122.01ZM5442.8 1146.92L5442.28 1146.06C5415.16 1162.42 5401.48 1184.46 5401.48 1212.14H5402.48H5403.48C5403.48 1185.28 5416.68 1163.83 5443.32 1147.77L5442.8 1146.92ZM5402.48 1212.14H5401.48C5401.48 1234.19 5410.32 1252.84 5427.91 1268.04L5428.57 1267.29L5429.22 1266.53C5412.03 1251.68 5403.48 1233.57 5403.48 1212.14H5402.48ZM5428.57 1267.29L5427.91 1268.04C5445.5 1283.23 5475.55 1295.33 5517.89 1304.43L5518.1 1303.45L5518.31 1302.48C5476.06 1293.39 5446.42 1281.38 5429.22 1266.53L5428.57 1267.29ZM5518.1 1303.45L5517.91 1304.44L5682.74 1337.64L5682.94 1336.66L5683.14 1335.68L5518.3 1302.47L5518.1 1303.45ZM5682.94 1336.66L5682.74 1337.64C5771.19 1355.8 5837.01 1385 5880.3 1425.15L5880.98 1424.42L5881.66 1423.68C5837.99 1383.19 5771.78 1353.88 5683.14 1335.68L5682.94 1336.66ZM5880.98 1424.42L5880.3 1425.15C5923.56 1465.26 5945.21 1517.95 5945.21 1583.32H5946.21H5947.21C5947.21 1517.46 5925.37 1464.21 5881.66 1423.68L5880.98 1424.42ZM5946.21 1583.32H5945.21C5945.21 1642.8 5927.68 1694.96 5892.65 1739.84L5893.44 1740.45L5894.22 1741.07C5929.55 1695.82 5947.21 1643.23 5947.21 1583.32H5946.21ZM5893.44 1740.45L5892.64 1739.84C5857.98 1784.75 5810.3 1819.83 5749.56 1845.07L5749.94 1846L5750.33 1846.92C5811.34 1821.57 5859.32 1786.29 5894.23 1741.06L5893.44 1740.45ZM5749.94 1846L5749.56 1845.07C5689.23 1869.92 5619.59 1882.35 5540.63 1882.35V1883.35V1884.35C5619.8 1884.35 5689.7 1871.88 5750.32 1846.92L5749.94 1846ZM5540.63 1883.35V1882.35C5420.2 1882.35 5324.37 1857.28 5253.04 1807.23L5252.46 1808.05L5251.89 1808.87C5323.66 1859.23 5419.94 1884.35 5540.63 1884.35V1883.35ZM5252.46 1808.05L5253.04 1807.23C5182.12 1756.8 5140.56 1688.26 5128.34 1601.57L5127.35 1601.71L5126.36 1601.84C5138.66 1689.08 5180.51 1758.11 5251.89 1808.86L5252.46 1808.05ZM5127.35 1601.71L5127.41 1602.7L5375.85 1589.66L5375.8 1588.66L5375.74 1587.66L5127.3 1600.71L5127.35 1601.71ZM5375.8 1588.66L5374.82 1588.86C5382.38 1625.86 5400.7 1654.16 5429.79 1673.69L5430.35 1672.86L5430.9 1672.03C5402.28 1652.82 5384.24 1624.99 5376.78 1588.46L5375.8 1588.66ZM5430.35 1672.86L5429.8 1673.69C5458.86 1692.8 5496.03 1702.32 5541.23 1702.32V1701.32V1700.32C5496.3 1700.32 5459.55 1690.86 5430.9 1672.02L5430.35 1672.86ZM5541.23 1701.32V1702.32C5585.62 1702.32 5621.4 1693.8 5648.49 1676.67L5647.96 1675.82L5647.42 1674.98C5620.75 1691.84 5585.38 1700.32 5541.23 1700.32V1701.32ZM5647.96 1675.82L5648.49 1676.67C5675.99 1659.13 5690.06 1636.51 5690.46 1608.83L5689.46 1608.82L5688.46 1608.81C5688.07 1635.68 5674.47 1657.73 5647.42 1674.98L5647.96 1675.82ZM5689.46 1608.82L5690.46 1608.8C5690.06 1585.56 5680.22 1566.5 5661.02 1551.7L5660.41 1552.49L5659.8 1553.28C5678.54 1567.73 5688.07 1586.23 5688.46 1608.84L5689.46 1608.82ZM5660.41 1552.49L5661.03 1551.71C5641.88 1536.54 5612.44 1525.04 5572.85 1517.12L5572.65 1518.1L5572.46 1519.08C5611.92 1526.97 5640.99 1538.4 5659.79 1553.27L5660.41 1552.49ZM5572.65 1518.1L5572.85 1517.12L5415.13 1485.69L5414.93 1486.67L5414.74 1487.65L5572.46 1519.08L5572.65 1518.1ZM5414.93 1486.67L5415.13 1485.69C5326.29 1467.93 5260.3 1437.16 5217.01 1393.47L5216.3 1394.18L5215.58 1394.88C5259.26 1438.95 5325.68 1469.84 5414.73 1487.65L5414.93 1486.67ZM5216.3 1394.18L5217.01 1393.47C5174.13 1349.8 5152.66 1294.13 5152.66 1226.37H5151.66H5150.66C5150.66 1294.59 5172.29 1350.79 5215.58 1394.88L5216.3 1394.18ZM5151.66 1226.37H5152.66C5152.66 1168.06 5168.42 1117.88 5199.9 1075.77L5199.1 1075.17L5198.3 1074.57C5166.53 1117.06 5150.66 1167.68 5150.66 1226.37H5151.66ZM5199.1 1075.17L5199.9 1075.78C5231.79 1033.65 5276.49 1001.14 5334.07 978.266L5333.7 977.336L5333.33 976.407C5275.47 999.39 5230.45 1032.1 5198.3 1074.57L5199.1 1075.17ZM5333.7 977.336L5334.06 978.267C5392.03 955.396 5459.89 943.946 5537.67 943.946V942.946V941.946C5459.7 941.946 5391.58 953.423 5333.33 976.406L5333.7 977.336ZM5537.67 942.946V943.946C5652.57 943.946 5742.86 968.23 5808.64 1016.68L5809.24 1015.88L5809.83 1015.07C5743.59 966.283 5652.83 941.946 5537.67 941.946V942.946ZM5809.24 1015.88L5808.65 1016.68C5874.83 1065.14 5913.43 1131.1 5924.46 1214.64L5925.45 1214.51L5926.45 1214.38C5915.34 1130.32 5876.46 1063.86 5809.83 1015.07L5809.24 1015.88ZM7821.83 1824.06L7821.32 1824.92L7821.33 1824.92L7821.83 1824.06ZM7667.67 1658.03L7666.77 1658.48L7666.78 1658.49L7667.67 1658.03ZM7668.26 1168.26L7667.37 1167.81L7667.37 1167.81L7668.26 1168.26ZM7823.02 1002.83L7823.53 1003.69L7823.53 1003.69L7823.02 1002.83ZM8270.1 986.231L8270.53 985.33L8270.53 985.33L8270.1 986.231ZM8411.81 1107.78L8410.98 1108.34L8411.81 1107.78ZM8469.33 1291.6V1292.6H8470.38L8470.32 1291.55L8469.33 1291.6ZM8230.96 1291.6L8229.97 1291.74L8230.1 1292.6H8230.96V1291.6ZM8177.6 1181.9L8176.9 1182.61L8176.91 1182.62L8177.6 1181.9ZM7962.95 1171.82L7963.54 1172.63L7963.54 1172.63L7962.95 1171.82ZM7894.76 1558.42L7893.83 1558.78L7893.84 1558.79L7894.76 1558.42ZM7962.95 1651.51L7963.54 1650.7L7963.54 1650.7L7962.95 1651.51ZM8143.21 1665.74L8142.75 1664.85L8142.75 1664.85L8143.21 1665.74ZM8200.72 1614.16L8199.89 1613.6L8199.89 1613.6L8200.72 1614.16ZM8230.96 1531.74V1530.74H8230.1L8229.97 1531.59L8230.96 1531.74ZM8469.33 1531.74L8470.32 1531.79L8470.38 1530.74H8469.33V1531.74ZM8412.4 1715.55L8411.56 1715.01L8411.56 1715.01L8412.4 1715.55ZM8273.06 1838.88L8272.61 1837.99L8272.61 1837.99L8273.06 1838.88ZM8062.57 1883.35V1882.35C7969.42 1882.35 7889.36 1862.62 7822.34 1823.2L7821.83 1824.06L7821.33 1824.92C7888.71 1864.56 7969.13 1884.35 8062.57 1884.35V1883.35ZM7821.83 1824.06L7822.35 1823.2C7755.71 1783.37 7704.45 1728.17 7668.56 1657.58L7667.67 1658.03L7666.78 1658.49C7702.83 1729.41 7754.35 1784.89 7821.32 1824.92L7821.83 1824.06ZM7667.67 1658.03L7668.56 1657.59C7633.07 1586.99 7615.3 1505.72 7615.3 1413.74H7614.3H7613.3C7613.3 1505.98 7631.12 1587.57 7666.77 1658.48L7667.67 1658.03ZM7614.3 1413.74H7615.3C7615.3 1320.58 7633.26 1238.92 7669.15 1168.72L7668.26 1168.26L7667.37 1167.81C7631.31 1238.34 7613.3 1320.32 7613.3 1413.74H7614.3ZM7668.26 1168.26L7669.15 1168.72C7705.43 1098.13 7756.89 1043.12 7823.53 1003.69L7823.02 1002.83L7822.51 1001.97C7755.54 1041.6 7703.82 1096.89 7667.37 1167.81L7668.26 1168.26ZM7823.02 1002.83L7823.53 1003.69C7890.16 963.875 7969.43 943.946 8061.38 943.946V942.946V941.946C7969.13 941.946 7889.49 961.941 7822.51 1001.97L7823.02 1002.83ZM8061.38 942.946V943.946C8140.71 943.946 8210.13 958.352 8269.66 987.131L8270.1 986.231L8270.53 985.33C8210.68 956.396 8140.96 941.946 8061.38 941.946V942.946ZM8270.1 986.231L8269.66 987.131C8329.2 1015.91 8376.3 1056.32 8410.98 1108.34L8411.81 1107.78L8412.64 1107.23C8377.75 1054.89 8330.37 1014.26 8270.53 985.33L8270.1 986.231ZM8411.81 1107.78L8410.98 1108.34C8445.65 1160.35 8464.78 1221.44 8468.33 1291.65L8469.33 1291.6L8470.32 1291.55C8466.76 1221.03 8447.54 1159.58 8412.64 1107.23L8411.81 1107.78ZM8469.33 1291.6V1290.6H8230.96V1291.6V1292.6H8469.33V1291.6ZM8230.96 1291.6L8231.95 1291.45C8225.21 1245.81 8207.33 1209.03 8178.29 1181.18L8177.6 1181.9L8176.91 1182.62C8205.58 1210.12 8223.28 1246.47 8229.97 1291.74L8230.96 1291.6ZM8177.6 1181.9L8178.3 1181.19C8149.62 1152.91 8112 1138.8 8065.53 1138.8V1139.8V1140.8C8111.56 1140.8 8148.65 1154.76 8176.9 1182.61L8177.6 1181.9ZM8065.53 1139.8V1138.8C8026.2 1138.8 7991.8 1149.53 7962.36 1171.01L7962.95 1171.82L7963.54 1172.63C7992.61 1151.42 8026.59 1140.8 8065.53 1140.8V1139.8ZM7962.95 1171.82L7962.37 1171.01C7933.33 1192.1 7910.69 1222.9 7894.43 1263.35L7895.36 1263.73L7896.29 1264.1C7912.44 1223.92 7934.87 1193.45 7963.54 1172.63L7962.95 1171.82ZM7895.36 1263.73L7894.43 1263.35C7878.16 1303.82 7870.05 1352.78 7870.05 1410.18H7871.05H7872.05C7872.05 1352.96 7880.14 1304.27 7896.29 1264.1L7895.36 1263.73ZM7871.05 1410.18H7870.05C7870.05 1468.38 7877.96 1517.92 7893.83 1558.78L7894.76 1558.42L7895.7 1558.06C7879.94 1517.49 7872.05 1468.21 7872.05 1410.18H7871.05ZM7894.76 1558.42L7893.84 1558.79C7910.1 1599.64 7932.93 1630.84 7962.36 1652.32L7962.95 1651.51L7963.54 1650.7C7934.47 1629.49 7911.85 1598.63 7895.69 1558.05L7894.76 1558.42ZM7962.95 1651.51L7962.36 1652.32C7991.8 1673.8 8026.2 1684.53 8065.53 1684.53V1683.53V1682.53C8026.59 1682.53 7992.61 1671.92 7963.54 1650.7L7962.95 1651.51ZM8065.53 1683.53V1684.53C8094.53 1684.53 8120.58 1678.57 8143.67 1666.63L8143.21 1665.74L8142.75 1664.85C8119.98 1676.63 8094.25 1682.53 8065.53 1682.53V1683.53ZM8143.21 1665.74L8143.66 1666.63C8167.14 1654.69 8186.44 1637.38 8201.56 1614.71L8200.72 1614.16L8199.89 1613.6C8184.96 1636 8165.92 1653.07 8142.75 1664.85L8143.21 1665.74ZM8200.72 1614.16L8201.55 1614.71C8217.07 1591.64 8227.19 1564.03 8231.95 1531.88L8230.96 1531.74L8229.97 1531.59C8225.25 1563.49 8215.21 1590.81 8199.89 1613.6L8200.72 1614.16ZM8230.96 1531.74V1532.74H8469.33V1531.74V1530.74H8230.96V1531.74ZM8469.33 1531.74L8468.33 1531.68C8464.38 1601.1 8445.45 1662.2 8411.56 1715.01L8412.4 1715.55L8413.25 1716.09C8447.34 1662.96 8466.36 1601.52 8470.32 1531.79L8469.33 1531.74ZM8412.4 1715.55L8411.56 1715.01C8378.06 1767.42 8331.76 1808.42 8272.61 1837.99L8273.06 1838.88L8273.51 1839.78C8332.95 1810.05 8379.54 1768.82 8413.25 1716.09L8412.4 1715.55ZM8273.06 1838.88L8272.61 1837.99C8213.49 1867.55 8143.48 1882.35 8062.57 1882.35V1883.35V1884.35C8143.72 1884.35 8214.05 1869.51 8273.51 1839.78L8273.06 1838.88Z" fill="black" mask="url(#path-4-outside-1_2512_13)"/>
</g>
<g filter="url(#filter1_d_2512_13)">
<mask id="path-6-outside-2_2512_13" maskUnits="userSpaceOnUse" x="6161" y="581" width="1277" height="1304" fill="black">
<rect fill="white" x="6161" y="581" width="1277" height="1304"/>
<path d="M6464.51 1883.2C6406.4 1883.2 6354.62 1873.12 6309.16 1852.96C6263.7 1832.4 6227.73 1802.16 6201.24 1762.24C6175.15 1721.91 6162.11 1671.71 6162.11 1611.63C6162.11 1561.03 6171.4 1518.54 6189.98 1484.14C6208.56 1449.75 6233.85 1422.08 6265.87 1401.13C6297.89 1380.18 6334.26 1364.37 6374.97 1353.7C6416.09 1343.02 6459.17 1335.51 6504.24 1331.17C6557.21 1325.63 6599.9 1320.49 6632.31 1315.75C6664.73 1310.61 6688.25 1303.1 6702.87 1293.22C6717.5 1283.34 6724.81 1268.71 6724.81 1249.34V1245.78C6724.81 1208.23 6712.95 1179.17 6689.23 1158.62C6665.91 1138.06 6632.71 1127.79 6589.62 1127.79C6544.16 1127.79 6507.99 1137.87 6481.11 1158.03C6454.23 1177.79 6436.44 1202.69 6427.75 1232.74L6194.13 1213.76C6205.99 1158.42 6229.31 1110.59 6264.09 1070.27C6298.88 1029.56 6343.75 998.327 6398.69 976.586C6454.03 954.45 6518.07 943.381 6590.81 943.381C6641.4 943.381 6689.83 949.311 6736.08 961.17C6782.72 973.029 6824.03 991.41 6860 1016.31C6896.37 1041.22 6925.03 1073.24 6945.98 1112.37C6966.93 1151.11 6977.4 1197.56 6977.4 1251.71V1866H6737.86V1739.7H6730.74C6716.11 1768.16 6696.55 1793.27 6672.04 1815.01C6647.53 1836.35 6618.08 1853.15 6583.69 1865.41C6549.3 1877.27 6509.57 1883.2 6464.51 1883.2ZM6536.85 1708.87C6574.01 1708.87 6606.82 1701.56 6635.28 1686.93C6663.74 1671.91 6686.07 1651.75 6702.28 1626.45C6718.49 1601.15 6726.59 1572.49 6726.59 1540.47V1443.82C6718.68 1448.96 6707.81 1453.71 6693.98 1458.06C6680.54 1462.01 6665.32 1465.76 6648.32 1469.32C6631.32 1472.48 6614.33 1475.45 6597.33 1478.22C6580.33 1480.59 6564.91 1482.76 6551.08 1484.74C6521.43 1489.09 6495.54 1496 6473.4 1505.49C6451.27 1514.98 6434.07 1527.83 6421.82 1544.03C6409.56 1559.84 6403.44 1579.61 6403.44 1603.33C6403.44 1637.72 6415.89 1664 6440.79 1682.19C6466.09 1699.98 6498.11 1708.87 6536.85 1708.87ZM7173.37 1866V955.24H7425.97V1866H7173.37ZM7300.26 837.838C7262.71 837.838 7230.49 825.386 7203.61 800.482C7177.13 775.183 7163.88 744.943 7163.88 709.762C7163.88 674.976 7177.13 645.131 7203.61 620.228C7230.49 594.929 7262.71 582.279 7300.26 582.279C7337.81 582.279 7369.83 594.929 7396.32 620.228C7423.2 645.131 7436.64 674.976 7436.64 709.762C7436.64 744.943 7423.2 775.183 7396.32 800.482C7369.83 825.386 7337.81 837.838 7300.26 837.838Z"/>
</mask>
<path d="M6464.51 1883.2C6406.4 1883.2 6354.62 1873.12 6309.16 1852.96C6263.7 1832.4 6227.73 1802.16 6201.24 1762.24C6175.15 1721.91 6162.11 1671.71 6162.11 1611.63C6162.11 1561.03 6171.4 1518.54 6189.98 1484.14C6208.56 1449.75 6233.85 1422.08 6265.87 1401.13C6297.89 1380.18 6334.26 1364.37 6374.97 1353.7C6416.09 1343.02 6459.17 1335.51 6504.24 1331.17C6557.21 1325.63 6599.9 1320.49 6632.31 1315.75C6664.73 1310.61 6688.25 1303.1 6702.87 1293.22C6717.5 1283.34 6724.81 1268.71 6724.81 1249.34V1245.78C6724.81 1208.23 6712.95 1179.17 6689.23 1158.62C6665.91 1138.06 6632.71 1127.79 6589.62 1127.79C6544.16 1127.79 6507.99 1137.87 6481.11 1158.03C6454.23 1177.79 6436.44 1202.69 6427.75 1232.74L6194.13 1213.76C6205.99 1158.42 6229.31 1110.59 6264.09 1070.27C6298.88 1029.56 6343.75 998.327 6398.69 976.586C6454.03 954.45 6518.07 943.381 6590.81 943.381C6641.4 943.381 6689.83 949.311 6736.08 961.17C6782.72 973.029 6824.03 991.41 6860 1016.31C6896.37 1041.22 6925.03 1073.24 6945.98 1112.37C6966.93 1151.11 6977.4 1197.56 6977.4 1251.71V1866H6737.86V1739.7H6730.74C6716.11 1768.16 6696.55 1793.27 6672.04 1815.01C6647.53 1836.35 6618.08 1853.15 6583.69 1865.41C6549.3 1877.27 6509.57 1883.2 6464.51 1883.2ZM6536.85 1708.87C6574.01 1708.87 6606.82 1701.56 6635.28 1686.93C6663.74 1671.91 6686.07 1651.75 6702.28 1626.45C6718.49 1601.15 6726.59 1572.49 6726.59 1540.47V1443.82C6718.68 1448.96 6707.81 1453.71 6693.98 1458.06C6680.54 1462.01 6665.32 1465.76 6648.32 1469.32C6631.32 1472.48 6614.33 1475.45 6597.33 1478.22C6580.33 1480.59 6564.91 1482.76 6551.08 1484.74C6521.43 1489.09 6495.54 1496 6473.4 1505.49C6451.27 1514.98 6434.07 1527.83 6421.82 1544.03C6409.56 1559.84 6403.44 1579.61 6403.44 1603.33C6403.44 1637.72 6415.89 1664 6440.79 1682.19C6466.09 1699.98 6498.11 1708.87 6536.85 1708.87ZM7173.37 1866V955.24H7425.97V1866H7173.37ZM7300.26 837.838C7262.71 837.838 7230.49 825.386 7203.61 800.482C7177.13 775.183 7163.88 744.943 7163.88 709.762C7163.88 674.976 7177.13 645.131 7203.61 620.228C7230.49 594.929 7262.71 582.279 7300.26 582.279C7337.81 582.279 7369.83 594.929 7396.32 620.228C7423.2 645.131 7436.64 674.976 7436.64 709.762C7436.64 744.943 7423.2 775.183 7396.32 800.482C7369.83 825.386 7337.81 837.838 7300.26 837.838Z" fill="black"/>
<path d="M6309.16 1852.96L6308.75 1853.87L6308.75 1853.87L6309.16 1852.96ZM6201.24 1762.24L6200.4 1762.78L6200.41 1762.79L6201.24 1762.24ZM6189.98 1484.14L6189.1 1483.67L6189.1 1483.67L6189.98 1484.14ZM6265.87 1401.13L6265.33 1400.3L6265.33 1400.3L6265.87 1401.13ZM6374.97 1353.7L6374.72 1352.73L6374.72 1352.73L6374.97 1353.7ZM6504.24 1331.17L6504.33 1332.16L6504.34 1332.16L6504.24 1331.17ZM6632.31 1315.75L6632.46 1316.74L6632.47 1316.74L6632.31 1315.75ZM6702.87 1293.22L6702.31 1292.39L6702.31 1292.39L6702.87 1293.22ZM6689.23 1158.62L6688.57 1159.37L6688.58 1159.38L6689.23 1158.62ZM6481.11 1158.03L6481.7 1158.83L6481.71 1158.83L6481.11 1158.03ZM6427.75 1232.74L6427.67 1233.73L6428.48 1233.8L6428.71 1233.02L6427.75 1232.74ZM6194.13 1213.76L6193.15 1213.55L6192.91 1214.67L6194.05 1214.76L6194.13 1213.76ZM6264.09 1070.27L6264.85 1070.92L6264.85 1070.92L6264.09 1070.27ZM6398.69 976.586L6399.06 977.516L6399.06 977.515L6398.69 976.586ZM6736.08 961.17L6735.83 962.138L6735.83 962.139L6736.08 961.17ZM6860 1016.31L6859.43 1017.14L6859.44 1017.14L6860 1016.31ZM6945.98 1112.37L6945.1 1112.84L6945.1 1112.85L6945.98 1112.37ZM6977.4 1866V1867H6978.4V1866H6977.4ZM6737.86 1866H6736.86V1867H6737.86V1866ZM6737.86 1739.7H6738.86V1738.7H6737.86V1739.7ZM6730.74 1739.7V1738.7H6730.13L6729.85 1739.25L6730.74 1739.7ZM6672.04 1815.01L6672.7 1815.76L6672.7 1815.76L6672.04 1815.01ZM6583.69 1865.41L6584.02 1866.35L6584.03 1866.35L6583.69 1865.41ZM6635.28 1686.93L6635.73 1687.82L6635.74 1687.82L6635.28 1686.93ZM6702.28 1626.45L6701.44 1625.91L6701.44 1625.91L6702.28 1626.45ZM6726.59 1443.82H6727.59V1441.98L6726.04 1442.99L6726.59 1443.82ZM6693.98 1458.06L6694.26 1459.01L6694.27 1459.01L6694.28 1459.01L6693.98 1458.06ZM6648.32 1469.32L6648.5 1470.3L6648.52 1470.3L6648.53 1470.3L6648.32 1469.32ZM6597.33 1478.22L6597.47 1479.21L6597.48 1479.2L6597.49 1479.2L6597.33 1478.22ZM6551.08 1484.74L6550.94 1483.75L6550.93 1483.75L6551.08 1484.74ZM6473.4 1505.49L6473.8 1506.41L6473.8 1506.41L6473.4 1505.49ZM6421.82 1544.03L6422.61 1544.64L6422.61 1544.64L6421.82 1544.03ZM6440.79 1682.19L6440.2 1683L6440.21 1683L6440.22 1683.01L6440.79 1682.19ZM6464.51 1883.2V1882.2C6406.52 1882.2 6354.88 1872.14 6309.56 1852.04L6309.16 1852.96L6308.75 1853.87C6354.36 1874.09 6406.28 1884.2 6464.51 1884.2V1883.2ZM6309.16 1852.96L6309.57 1852.04C6264.28 1831.56 6228.45 1801.44 6202.08 1761.68L6201.24 1762.24L6200.41 1762.79C6227 1802.88 6263.12 1833.24 6308.75 1853.87L6309.16 1852.96ZM6201.24 1762.24L6202.08 1761.69C6176.12 1721.57 6163.11 1671.57 6163.11 1611.63H6162.11H6161.11C6161.11 1671.86 6174.19 1722.26 6200.4 1762.78L6201.24 1762.24ZM6162.11 1611.63H6163.11C6163.11 1561.15 6172.38 1518.83 6190.86 1484.62L6189.98 1484.14L6189.1 1483.67C6170.42 1518.24 6161.11 1560.91 6161.11 1611.63H6162.11ZM6189.98 1484.14L6190.86 1484.62C6209.36 1450.37 6234.54 1422.83 6266.42 1401.97L6265.87 1401.13L6265.33 1400.3C6233.16 1421.34 6207.75 1449.14 6189.1 1483.67L6189.98 1484.14ZM6265.87 1401.13L6266.42 1401.97C6298.34 1381.08 6334.61 1365.31 6375.23 1354.66L6374.97 1353.7L6374.72 1352.73C6333.91 1363.43 6297.44 1379.28 6265.33 1400.3L6265.87 1401.13ZM6374.97 1353.7L6375.23 1354.67C6416.28 1344.01 6459.32 1336.5 6504.33 1332.16L6504.24 1331.17L6504.14 1330.17C6459.03 1334.52 6415.89 1342.04 6374.72 1352.73L6374.97 1353.7ZM6504.24 1331.17L6504.34 1332.16C6557.32 1326.63 6600.02 1321.49 6632.46 1316.74L6632.31 1315.75L6632.17 1314.76C6599.77 1319.5 6557.1 1324.64 6504.13 1330.17L6504.24 1331.17ZM6632.31 1315.75L6632.47 1316.74C6664.92 1311.59 6688.62 1304.05 6703.43 1294.05L6702.87 1293.22L6702.31 1292.39C6687.87 1302.15 6664.53 1309.63 6632.16 1314.76L6632.31 1315.75ZM6702.87 1293.22L6703.43 1294.05C6718.36 1283.96 6725.81 1269 6725.81 1249.34H6724.81H6723.81C6723.81 1268.42 6716.63 1282.71 6702.31 1292.39L6702.87 1293.22ZM6724.81 1249.34H6725.81V1245.78H6724.81H6723.81V1249.34H6724.81ZM6724.81 1245.78H6725.81C6725.81 1208 6713.87 1178.65 6689.89 1157.86L6689.23 1158.62L6688.58 1159.38C6712.03 1179.7 6723.81 1208.46 6723.81 1245.78H6724.81ZM6689.23 1158.62L6689.9 1157.87C6666.33 1137.1 6632.86 1126.79 6589.62 1126.79V1127.79V1128.79C6632.56 1128.79 6665.49 1139.03 6688.57 1159.37L6689.23 1158.62ZM6589.62 1127.79V1126.79C6544.02 1126.79 6507.62 1136.9 6480.51 1157.23L6481.11 1158.03L6481.71 1158.83C6508.37 1138.84 6544.3 1128.79 6589.62 1128.79V1127.79ZM6481.11 1158.03L6480.52 1157.22C6453.47 1177.11 6435.55 1202.19 6426.79 1232.46L6427.75 1232.74L6428.71 1233.02C6437.34 1203.2 6454.99 1178.48 6481.7 1158.83L6481.11 1158.03ZM6427.75 1232.74L6427.83 1231.74L6194.21 1212.77L6194.13 1213.76L6194.05 1214.76L6427.67 1233.73L6427.75 1232.74ZM6194.13 1213.76L6195.11 1213.97C6206.93 1158.78 6230.18 1111.11 6264.85 1070.92L6264.09 1070.27L6263.34 1069.62C6228.43 1110.07 6205.04 1158.06 6193.15 1213.55L6194.13 1213.76ZM6264.09 1070.27L6264.85 1070.92C6299.52 1030.34 6344.25 999.203 6399.06 977.516L6398.69 976.586L6398.32 975.656C6343.24 997.451 6298.24 1028.77 6263.33 1069.62L6264.09 1070.27ZM6398.69 976.586L6399.06 977.515C6454.26 955.435 6518.17 944.381 6590.81 944.381V943.381V942.381C6517.97 942.381 6453.8 953.465 6398.32 975.658L6398.69 976.586ZM6590.81 943.381V944.381C6641.32 944.381 6689.66 950.301 6735.83 962.138L6736.08 961.17L6736.33 960.201C6689.99 948.32 6641.48 942.381 6590.81 942.381V943.381ZM6736.08 961.17L6735.83 962.139C6782.37 973.971 6823.57 992.306 6859.43 1017.14L6860 1016.31L6860.57 1015.49C6824.49 990.513 6783.07 972.086 6736.32 960.2L6736.08 961.17ZM6860 1016.31L6859.44 1017.14C6895.67 1041.95 6924.22 1073.85 6945.1 1112.84L6945.98 1112.37L6946.86 1111.9C6925.83 1072.62 6897.07 1040.48 6860.57 1015.49L6860 1016.31ZM6945.98 1112.37L6945.1 1112.85C6965.95 1151.41 6976.4 1197.68 6976.4 1251.71H6977.4H6978.4C6978.4 1197.43 6967.9 1150.81 6946.86 1111.89L6945.98 1112.37ZM6977.4 1251.71H6976.4V1866H6977.4H6978.4V1251.71H6977.4ZM6977.4 1866V1865H6737.86V1866V1867H6977.4V1866ZM6737.86 1866H6738.86V1739.7H6737.86H6736.86V1866H6737.86ZM6737.86 1739.7V1738.7H6730.74V1739.7V1740.7H6737.86V1739.7ZM6730.74 1739.7L6729.85 1739.25C6715.28 1767.59 6695.79 1792.6 6671.38 1814.26L6672.04 1815.01L6672.7 1815.76C6697.3 1793.93 6716.95 1768.73 6731.63 1740.16L6730.74 1739.7ZM6672.04 1815.01L6671.38 1814.25C6646.98 1835.51 6617.64 1852.25 6583.35 1864.47L6583.69 1865.41L6584.03 1866.35C6618.52 1854.06 6648.08 1837.2 6672.7 1815.76L6672.04 1815.01ZM6583.69 1865.41L6583.36 1864.46C6549.1 1876.28 6509.49 1882.2 6464.51 1882.2V1883.2V1884.2C6509.66 1884.2 6549.5 1878.25 6584.02 1866.35L6583.69 1865.41ZM6536.85 1708.87V1709.87C6574.14 1709.87 6607.11 1702.53 6635.73 1687.82L6635.28 1686.93L6634.82 1686.04C6606.52 1700.58 6573.87 1707.87 6536.85 1707.87V1708.87ZM6635.28 1686.93L6635.74 1687.82C6664.35 1672.72 6686.81 1652.45 6703.12 1626.99L6702.28 1626.45L6701.44 1625.91C6685.33 1651.05 6663.13 1671.1 6634.81 1686.05L6635.28 1686.93ZM6702.28 1626.45L6703.12 1626.99C6719.44 1601.52 6727.59 1572.67 6727.59 1540.47H6726.59H6725.59C6725.59 1572.32 6717.53 1600.78 6701.44 1625.91L6702.28 1626.45ZM6726.59 1540.47H6727.59V1443.82H6726.59H6725.59V1540.47H6726.59ZM6726.59 1443.82L6726.04 1442.99C6718.24 1448.06 6707.47 1452.77 6693.68 1457.1L6693.98 1458.06L6694.28 1459.01C6708.16 1454.65 6719.12 1449.87 6727.13 1444.66L6726.59 1443.82ZM6693.98 1458.06L6693.7 1457.1C6680.29 1461.04 6665.09 1464.79 6648.12 1468.34L6648.32 1469.32L6648.53 1470.3C6665.54 1466.74 6680.79 1462.98 6694.26 1459.01L6693.98 1458.06ZM6648.32 1469.32L6648.14 1468.34C6631.15 1471.5 6614.16 1474.46 6597.17 1477.23L6597.33 1478.22L6597.49 1479.2C6614.49 1476.43 6631.5 1473.47 6648.5 1470.3L6648.32 1469.32ZM6597.33 1478.22L6597.19 1477.23C6580.19 1479.6 6564.77 1481.77 6550.94 1483.75L6551.08 1484.74L6551.22 1485.73C6565.05 1483.75 6580.47 1481.58 6597.47 1479.21L6597.33 1478.22ZM6551.08 1484.74L6550.93 1483.75C6521.22 1488.11 6495.24 1495.04 6473.01 1504.57L6473.4 1505.49L6473.8 1506.41C6495.84 1496.96 6521.64 1490.07 6551.22 1485.73L6551.08 1484.74ZM6473.4 1505.49L6473.01 1504.57C6450.74 1514.11 6433.4 1527.06 6421.02 1543.43L6421.82 1544.03L6422.61 1544.64C6434.75 1528.59 6451.79 1515.84 6473.8 1506.41L6473.4 1505.49ZM6421.82 1544.03L6421.03 1543.42C6408.61 1559.44 6402.44 1579.43 6402.44 1603.33H6403.44H6404.44C6404.44 1579.79 6410.51 1560.25 6422.61 1544.64L6421.82 1544.03ZM6403.44 1603.33H6402.44C6402.44 1637.99 6415.01 1664.6 6440.2 1683L6440.79 1682.19L6441.38 1681.38C6416.77 1663.41 6404.44 1637.44 6404.44 1603.33H6403.44ZM6440.79 1682.19L6440.22 1683.01C6465.72 1700.94 6497.96 1709.87 6536.85 1709.87V1708.87V1707.87C6498.26 1707.87 6466.46 1699.01 6441.37 1681.37L6440.79 1682.19ZM7173.37 1866H7172.37V1867H7173.37V1866ZM7173.37 955.24V954.24H7172.37V955.24H7173.37ZM7425.97 955.24H7426.97V954.24H7425.97V955.24ZM7425.97 1866V1867H7426.97V1866H7425.97ZM7203.61 800.482L7202.92 801.205L7202.93 801.211L7202.93 801.216L7203.61 800.482ZM7203.61 620.228L7204.3 620.956L7204.3 620.956L7203.61 620.228ZM7396.32 620.228L7395.63 620.951L7395.63 620.956L7395.64 620.961L7396.32 620.228ZM7396.32 800.482L7397 801.211L7397 801.21L7396.32 800.482ZM7173.37 1866H7174.37V955.24H7173.37H7172.37V1866H7173.37ZM7173.37 955.24V956.24H7425.97V955.24V954.24H7173.37V955.24ZM7425.97 955.24H7424.97V1866H7425.97H7426.97V955.24H7425.97ZM7425.97 1866V1865H7173.37V1866V1867H7425.97V1866ZM7300.26 837.838V836.838C7262.95 836.838 7230.98 824.476 7204.29 799.749L7203.61 800.482L7202.93 801.216C7230 826.295 7262.46 838.838 7300.26 838.838V837.838ZM7203.61 800.482L7204.3 799.759C7178.01 774.64 7164.88 744.658 7164.88 709.762H7163.88H7162.88C7162.88 745.229 7176.25 775.726 7202.92 801.205L7203.61 800.482ZM7163.88 709.762H7164.88C7164.88 675.266 7178 645.68 7204.3 620.956L7203.61 620.228L7202.93 619.499C7176.25 644.582 7162.88 674.686 7162.88 709.762H7163.88ZM7203.61 620.228L7204.3 620.956C7230.99 595.835 7262.96 583.279 7300.26 583.279V582.279V581.279C7262.46 581.279 7230 594.023 7202.93 619.5L7203.61 620.228ZM7300.26 582.279V583.279C7337.56 583.279 7369.33 595.835 7395.63 620.951L7396.32 620.228L7397.01 619.505C7370.33 594.023 7338.06 581.279 7300.26 581.279V582.279ZM7396.32 620.228L7395.64 620.961C7422.33 645.687 7435.64 675.271 7435.64 709.762H7436.64H7437.64C7437.64 674.681 7424.07 644.576 7397 619.494L7396.32 620.228ZM7436.64 709.762H7435.64C7435.64 744.653 7422.32 774.634 7395.63 799.754L7396.32 800.482L7397 801.21C7424.07 775.733 7437.64 745.234 7437.64 709.762H7436.64ZM7396.32 800.482L7395.63 799.754C7369.34 824.477 7337.57 836.838 7300.26 836.838V837.838V838.838C7338.06 838.838 7370.33 826.295 7397 801.211L7396.32 800.482Z" fill="black" mask="url(#path-6-outside-2_2512_13)"/>
</g>
<defs>
<filter id="filter0_d_2512_13" x="2615.54" y="650.219" width="5858.84" height="1242.13" filterUnits="userSpaceOnUse" color-interpolation-filters="sRGB">
<feFlood flood-opacity="0" result="BackgroundImageFix"/>
<feColorMatrix in="SourceAlpha" type="matrix" values="0 0 0 0 0 0 0 0 0 0 0 0 0 0 0 0 0 0 127 0" result="hardAlpha"/>
<feOffset dy="4"/>
<feGaussianBlur stdDeviation="2"/>
<feComposite in2="hardAlpha" operator="out"/>
<feColorMatrix type="matrix" values="0 0 0 0 0 0 0 0 0 0 0 0 0 0 0 0 0 0 0.25 0"/>
<feBlend mode="normal" in2="BackgroundImageFix" result="effect1_dropShadow_2512_13"/>
<feBlend mode="normal" in="SourceGraphic" in2="effect1_dropShadow_2512_13" result="shape"/>
</filter>
<filter id="filter1_d_2512_13" x="6157.11" y="581.279" width="1284.53" height="1310.92" filterUnits="userSpaceOnUse" color-interpolation-filters="sRGB">
<feFlood flood-opacity="0" result="BackgroundImageFix"/>
<feColorMatrix in="SourceAlpha" type="matrix" values="0 0 0 0 0 0 0 0 0 0 0 0 0 0 0 0 0 0 127 0" result="hardAlpha"/>
<feOffset dy="4"/>
<feGaussianBlur stdDeviation="2"/>
<feComposite in2="hardAlpha" operator="out"/>
<feColorMatrix type="matrix" values="0 0 0 0 0 0 0 0 0 0 0 0 0 0 0 0 0 0 0.25 0"/>
<feBlend mode="normal" in2="BackgroundImageFix" result="effect1_dropShadow_2512_13"/>
<feBlend mode="normal" in="SourceGraphic" in2="effect1_dropShadow_2512_13" result="shape"/>
</filter>
<linearGradient id="paint0_linear_2512_13" x1="880.254" y1="880.248" x2="76330.2" y2="76330.2" gradientUnits="userSpaceOnUse">
<stop stop-color="#A855F7"/>
<stop offset="0.01" stop-color="#EC4899"/>
</linearGradient>
<linearGradient id="paint1_linear_2512_13" x1="1207.2" y1="1207.2" x2="11267.2" y2="11267.2" gradientUnits="userSpaceOnUse">
<stop stop-color="#A855F7"/>
<stop offset="0.01" stop-color="#EC4899"/>
</linearGradient>
<linearGradient id="paint2_linear_2512_13" x1="503" y1="503.004" x2="151403" y2="151403" gradientUnits="userSpaceOnUse">
<stop stop-color="#A855F7"/>
<stop offset="0.01" stop-color="#EC4899"/>
</linearGradient>
<linearGradient id="paint3_linear_2512_13" x1="5523" y1="247.564" x2="5523" y2="2268.56" gradientUnits="userSpaceOnUse">
<stop stop-color="#A855F7"/>
<stop offset="1" stop-color="#EC4899"/>
</linearGradient>
</defs>
</svg>
